<svg xmlns="http://www.w3.org/2000/svg" xmlns:xlink="http://www.w3.org/1999/xlink" id="processonSvg1000" viewBox="182.3571428571426 -1.625 950.0058586591285 995.3392857142856" width="950.0058586591285" height="995.3392857142856"><defs id="ProcessOnDefs1001"><marker id="ProcessOnMarker1031" markerUnits="userSpaceOnUse" orient="auto" markerWidth="16.23606797749979" markerHeight="10.550836550532098" viewBox="-1.0 -1.3763819204711736 16.23606797749979 10.550836550532098" refX="-1.0" refY="3.8990363547948754"><path id="ProcessOnPath1032" d="M12.0 3.8990363547948754L0.0 7.798072709589751V0.0Z" stroke="#323232" stroke-width="2.0" fill="#323232" transform="matrix(1.0,0.0,0.0,1.0,0.0,0.0)"/></marker><marker id="ProcessOnMarker1038" markerUnits="userSpaceOnUse" orient="auto" markerWidth="16.23606797749979" markerHeight="10.550836550532098" viewBox="-1.0 -1.3763819204711736 16.23606797749979 10.550836550532098" refX="-1.0" refY="3.8990363547948754"><path id="ProcessOnPath1039" d="M12.0 3.8990363547948754L0.0 7.798072709589751V0.0Z" stroke="#323232" stroke-width="2.0" fill="#323232" transform="matrix(1.0,0.0,0.0,1.0,0.0,0.0)"/></marker><marker id="ProcessOnMarker1045" markerUnits="userSpaceOnUse" orient="auto" markerWidth="16.23606797749979" markerHeight="10.550836550532098" viewBox="-1.0 -1.3763819204711736 16.23606797749979 10.550836550532098" refX="-1.0" refY="3.8990363547948754"><path id="ProcessOnPath1046" d="M12.0 3.8990363547948754L0.0 7.798072709589751V0.0Z" stroke="#323232" stroke-width="2.0" fill="#323232" transform="matrix(1.0,0.0,0.0,1.0,0.0,0.0)"/></marker><marker id="ProcessOnMarker1055" markerUnits="userSpaceOnUse" orient="auto" markerWidth="16.23606797749979" markerHeight="10.550836550532098" viewBox="-1.0 -1.3763819204711736 16.23606797749979 10.550836550532098" refX="-1.0" refY="3.8990363547948754"><path id="ProcessOnPath1056" d="M12.0 3.8990363547948754L0.0 7.798072709589751V0.0Z" stroke="#323232" stroke-width="2.0" fill="#323232" transform="matrix(1.0,0.0,0.0,1.0,0.0,0.0)"/></marker><marker id="ProcessOnMarker1059" markerUnits="userSpaceOnUse" orient="auto" markerWidth="16.23606797749979" markerHeight="10.550836550532098" viewBox="-1.0 -1.3763819204711736 16.23606797749979 10.550836550532098" refX="-1.0" refY="3.8990363547948754"><path id="ProcessOnPath1060" d="M12.0 3.8990363547948754L0.0 7.798072709589751V0.0Z" stroke="#323232" stroke-width="2.0" fill="#323232" transform="matrix(1.0,0.0,0.0,1.0,0.0,0.0)"/></marker><marker id="ProcessOnMarker1066" markerUnits="userSpaceOnUse" orient="auto" markerWidth="16.23606797749979" markerHeight="10.550836550532098" viewBox="-1.0 -1.3763819204711736 16.23606797749979 10.550836550532098" refX="-1.0" refY="3.8990363547948754"><path id="ProcessOnPath1067" d="M12.0 3.8990363547948754L0.0 7.798072709589751V0.0Z" stroke="#323232" stroke-width="2.0" fill="#323232" transform="matrix(1.0,0.0,0.0,1.0,0.0,0.0)"/></marker><marker id="ProcessOnMarker1073" markerUnits="userSpaceOnUse" orient="auto" markerWidth="16.23606797749979" markerHeight="10.550836550532098" viewBox="-1.0 -1.3763819204711736 16.23606797749979 10.550836550532098" refX="-1.0" refY="3.8990363547948754"><path id="ProcessOnPath1074" d="M12.0 3.8990363547948754L0.0 7.798072709589751V0.0Z" stroke="#323232" stroke-width="2.0" fill="#323232" transform="matrix(1.0,0.0,0.0,1.0,0.0,0.0)"/></marker><marker id="ProcessOnMarker1081" markerUnits="userSpaceOnUse" orient="auto" markerWidth="16.23606797749979" markerHeight="10.550836550532098" viewBox="-1.0 -1.3763819204711736 16.23606797749979 10.550836550532098" refX="-1.0" refY="3.8990363547948754"><path id="ProcessOnPath1082" d="M12.0 3.8990363547948754L0.0 7.798072709589751V0.0Z" stroke="#323232" stroke-width="2.0" fill="#323232" transform="matrix(1.0,0.0,0.0,1.0,0.0,0.0)"/></marker><marker id="ProcessOnMarker1085" markerUnits="userSpaceOnUse" orient="auto" markerWidth="16.23606797749979" markerHeight="10.550836550532098" viewBox="-1.0 -1.3763819204711736 16.23606797749979 10.550836550532098" refX="-1.0" refY="3.8990363547948754"><path id="ProcessOnPath1086" d="M12.0 3.8990363547948754L0.0 7.798072709589751V0.0Z" stroke="#323232" stroke-width="2.0" fill="#323232" transform="matrix(1.0,0.0,0.0,1.0,0.0,0.0)"/></marker><marker id="ProcessOnMarker1096" markerUnits="userSpaceOnUse" orient="auto" markerWidth="16.23606797749979" markerHeight="10.550836550532098" viewBox="-1.0 -1.3763819204711736 16.23606797749979 10.550836550532098" refX="-1.0" refY="3.8990363547948754"><path id="ProcessOnPath1097" d="M12.0 3.8990363547948754L0.0 7.798072709589751V0.0Z" stroke="#323232" stroke-width="2.0" fill="#323232" transform="matrix(1.0,0.0,0.0,1.0,0.0,0.0)"/></marker><marker id="ProcessOnMarker1103" markerUnits="userSpaceOnUse" orient="auto" markerWidth="16.23606797749979" markerHeight="10.550836550532098" viewBox="-1.0 -1.3763819204711736 16.23606797749979 10.550836550532098" refX="-1.0" refY="3.8990363547948754"><path id="ProcessOnPath1104" d="M12.0 3.8990363547948754L0.0 7.798072709589751V0.0Z" stroke="#323232" stroke-width="2.0" fill="#323232" transform="matrix(1.0,0.0,0.0,1.0,0.0,0.0)"/></marker><marker id="ProcessOnMarker1115" markerUnits="userSpaceOnUse" orient="auto" markerWidth="16.23606797749979" markerHeight="10.550836550532098" viewBox="-1.0 -1.3763819204711736 16.23606797749979 10.550836550532098" refX="-1.0" refY="3.8990363547948754"><path id="ProcessOnPath1116" d="M12.0 3.8990363547948754L0.0 7.798072709589751V0.0Z" stroke="#323232" stroke-width="2.0" fill="#323232" transform="matrix(1.0,0.0,0.0,1.0,0.0,0.0)"/></marker><marker id="ProcessOnMarker1122" markerUnits="userSpaceOnUse" orient="auto" markerWidth="16.23606797749979" markerHeight="10.550836550532098" viewBox="-1.0 -1.3763819204711736 16.23606797749979 10.550836550532098" refX="-1.0" refY="3.8990363547948754"><path id="ProcessOnPath1123" d="M12.0 3.8990363547948754L0.0 7.798072709589751V0.0Z" stroke="#323232" stroke-width="2.0" fill="#323232" transform="matrix(1.0,0.0,0.0,1.0,0.0,0.0)"/></marker><marker id="ProcessOnMarker1129" markerUnits="userSpaceOnUse" orient="auto" markerWidth="16.23606797749979" markerHeight="10.550836550532098" viewBox="-1.0 -1.3763819204711736 16.23606797749979 10.550836550532098" refX="-1.0" refY="3.8990363547948754"><path id="ProcessOnPath1130" d="M12.0 3.8990363547948754L0.0 7.798072709589751V0.0Z" stroke="#323232" stroke-width="2.0" fill="#323232" transform="matrix(1.0,0.0,0.0,1.0,0.0,0.0)"/></marker></defs><g id="ProcessOnG1002"><path id="ProcessOnPath1003" d="M182.3571428571426 -1.625H1132.3630015162712V993.7142857142856H182.35714285714266V-1.625Z" fill="none"/><g id="ProcessOnG1004"><g id="ProcessOnG1005" transform="matrix(1.0,0.0,0.0,1.0,397.3877551020408,512.1428571428573)" opacity="1.0"><path id="ProcessOnPath1006" d="M0.0 29.25C0.0 -9.75 358.0 -9.75 358.0 29.25C358.0 68.25 0.0 68.25 0.0 29.25Z" stroke="#323232" stroke-width="2.0" stroke-dasharray="none" opacity="1.0" fill="#ffffff"/><g id="ProcessOnG1007" transform="matrix(1.0,0.0,0.0,1.0,10.0,21.125)"><text id="ProcessOnText1008" fill="#000000" font-weight="normal" font-style="normal" text-decoration="blink" font-family="微软雅黑" text-anchor="middle" font-size="13" x="169.0" y="13.325">FINISHING_CONTAINERS_WAIT</text></g></g><g id="ProcessOnG1009" transform="matrix(1.0,0.0,0.0,1.0,399.19322840743433,684.9642857142858)" opacity="1.0"><path id="ProcessOnPath1010" d="M0.0 29.25C0.0 -9.75 358.0 -9.75 358.0 29.25C358.0 68.25 0.0 68.25 0.0 29.25Z" stroke="#323232" stroke-width="2.0" stroke-dasharray="none" opacity="1.0" fill="#ffffff"/><g id="ProcessOnG1011" transform="matrix(1.0,0.0,0.0,1.0,10.0,21.125)"><text id="ProcessOnText1012" fill="#000000" font-weight="normal" font-style="normal" text-decoration="blink" font-family="微软雅黑" text-anchor="middle" font-size="13" x="169.0" y="13.325">APPLICATION_RESOURCES_CLEANINGUP</text></g></g><g id="ProcessOnG1013" transform="matrix(1.0,0.0,0.0,1.0,399.570321219308,852.7142857142856)" opacity="1.0"><path id="ProcessOnPath1014" d="M0.0 29.25C0.0 -9.75 358.0 -9.75 358.0 29.25C358.0 68.25 0.0 68.25 0.0 29.25Z" stroke="#323232" stroke-width="2.0" stroke-dasharray="none" opacity="1.0" fill="#ffffff"/><g id="ProcessOnG1015" transform="matrix(1.0,0.0,0.0,1.0,10.0,21.125)"><text id="ProcessOnText1016" fill="#000000" font-weight="normal" font-style="normal" text-decoration="blink" font-family="微软雅黑" text-anchor="middle" font-size="13" x="169.0" y="13.325">FINISHED</text></g></g><g id="ProcessOnG1017" transform="matrix(1.0,0.0,0.0,1.0,398.0,183.5)" opacity="1.0"><path id="ProcessOnPath1018" d="M0.0 29.25C0.0 -9.75 358.0 -9.75 358.0 29.25C358.0 68.25 0.0 68.25 0.0 29.25Z" stroke="#323232" stroke-width="2.0" stroke-dasharray="none" opacity="1.0" fill="#ffffff"/><g id="ProcessOnG1019" transform="matrix(1.0,0.0,0.0,1.0,10.0,21.125)"><text id="ProcessOnText1020" fill="#000000" font-weight="normal" font-style="normal" text-decoration="blink" font-family="微软雅黑" text-anchor="middle" font-size="13" x="169.0" y="13.325">INITING</text></g></g><g id="ProcessOnG1021" transform="matrix(1.0,0.0,0.0,1.0,397.35714285714283,353.0)" opacity="1.0"><path id="ProcessOnPath1022" d="M0.0 29.25C0.0 -9.75 358.0 -9.75 358.0 29.25C358.0 68.25 0.0 68.25 0.0 29.25Z" stroke="#323232" stroke-width="2.0" stroke-dasharray="none" opacity="1.0" fill="#ffffff"/><g id="ProcessOnG1023" transform="matrix(1.0,0.0,0.0,1.0,10.0,21.125)"><text id="ProcessOnText1024" fill="#000000" font-weight="normal" font-style="normal" text-decoration="blink" font-family="微软雅黑" text-anchor="middle" font-size="13" x="169.0" y="13.325">RUNNING</text></g></g><g id="ProcessOnG1025" transform="matrix(1.0,0.0,0.0,1.0,397.08163265306126,56.5)" opacity="1.0"><path id="ProcessOnPath1026" d="M0.0 29.25C0.0 -9.75 358.0 -9.75 358.0 29.25C358.0 68.25 0.0 68.25 0.0 29.25Z" stroke="#323232" stroke-width="2.0" stroke-dasharray="none" opacity="1.0" fill="#ffffff"/><g id="ProcessOnG1027" transform="matrix(1.0,0.0,0.0,1.0,10.0,21.125)"><text id="ProcessOnText1028" fill="#000000" font-weight="normal" font-style="normal" text-decoration="blink" font-family="微软雅黑" text-anchor="middle" font-size="13" x="169.0" y="13.325">NEW</text></g></g><g id="ProcessOnG1029"><path id="ProcessOnPath1030" d="M576.0816326530613 115.0L576.0816326530613 149.25L577.0 149.25L577.0 168.2639320225002" stroke="#323232" stroke-width="2.0" stroke-dasharray="none" fill="none" marker-end="url(#ProcessOnMarker1031)"/><g id="ProcessOnG1033" transform="matrix(1.0,0.0,0.0,1.0,576.0816326530613,133.96614968471943)"><path id="ProcessOnPath1034" d="M0 0H119.0V16.25H0Z" fill="#fff" transform="matrix(1.0,0.0,0.0,1.0,-59.5,0.0)"/><text id="ProcessOnText1035" fill="#000000" font-weight="normal" font-style="normal" text-decoration="blink" font-family="微软雅黑" text-anchor="middle" font-size="13" x="0.0" y="13.325">INIT_APPLICATION</text></g></g><g id="ProcessOnG1036"><path id="ProcessOnPath1037" d="M755.0816326530613 85.75L1059.545918367347 85.75L1059.545918367347 26.5L576.0816326530613 26.5L576.0816326530613 41.263932022500214" stroke="#323232" stroke-width="2.0" stroke-dasharray="none" fill="none" marker-end="url(#ProcessOnMarker1038)"/><g id="ProcessOnG1040" transform="matrix(1.0,0.0,0.0,1.0,992.2889523560968,18.375)"><path id="ProcessOnPath1041" d="M0 0H109.0V16.25H0Z" fill="#fff" transform="matrix(1.0,0.0,0.0,1.0,-54.5,0.0)"/><text id="ProcessOnText1042" fill="#000000" font-weight="normal" font-style="normal" text-decoration="blink" font-family="微软雅黑" text-anchor="middle" font-size="13" x="0.0" y="13.325">INIT_CONTAINER</text></g></g><g id="ProcessOnG1043"><path id="ProcessOnPath1044" d="M577.0 242.0L577.0 272.0L1062.7857142857151 272.0L1062.7857142857151 212.75L771.2360679774998 212.75" stroke="#323232" stroke-width="2.0" stroke-dasharray="none" fill="none" marker-end="url(#ProcessOnMarker1045)"/><g id="ProcessOnG1047" transform="matrix(1.0,0.0,0.0,1.0,980.2926802969653,239.5)"><path id="ProcessOnPath1048" d="M0 0H249.0V65.0H0Z" fill="#fff" transform="matrix(1.0,0.0,0.0,1.0,-124.5,0.0)"/><text id="ProcessOnText1049" fill="#000000" font-weight="normal" font-style="normal" text-decoration="blink" font-family="微软雅黑" text-anchor="middle" font-size="13" x="0.0" y="13.325">INIT_CONTAINER</text><text id="ProcessOnText1050" fill="#000000" font-weight="normal" font-style="normal" text-decoration="blink" font-family="微软雅黑" text-anchor="middle" font-size="13" x="0.0" y="29.575">APPLICATION_CONTAINER_FINISHED</text><text id="ProcessOnText1051" fill="#000000" font-weight="normal" font-style="normal" text-decoration="blink" font-family="微软雅黑" text-anchor="middle" font-size="13" x="0.0" y="45.825">APPLICATION_LOG_HANDLING_INITED</text><text id="ProcessOnText1052" fill="#000000" font-weight="normal" font-style="normal" text-decoration="blink" font-family="微软雅黑" text-anchor="middle" font-size="13" x="0.0" y="62.075">APPLICATION_LOG_HANDLING_FAILED</text></g></g><g id="ProcessOnG1053"><path id="ProcessOnPath1054" d="M398.0 212.75L270.2448979591834 212.75L270.2448979591834 541.3928571428573L382.151687124541 541.3928571428573" stroke="#323232" stroke-width="2.0" stroke-dasharray="none" fill="none" marker-end="url(#ProcessOnMarker1055)"/></g><g id="ProcessOnG1057"><path id="ProcessOnPath1058" d="M398.0 212.75L270.8571428571426 212.75L270.8571428571426 714.2142857142858L383.95716042993456 714.2142857142858" stroke="#323232" stroke-width="2.0" stroke-dasharray="none" fill="none" marker-end="url(#ProcessOnMarker1059)"/><g id="ProcessOnG1061" transform="matrix(1.0,0.0,0.0,1.0,270.8571428571426,448.3357230721102)"><path id="ProcessOnPath1062" d="M0 0H137.0V16.25H0Z" fill="#fff" transform="matrix(1.0,0.0,0.0,1.0,-68.5,0.0)"/><text id="ProcessOnText1063" fill="#000000" font-weight="normal" font-style="normal" text-decoration="blink" font-family="微软雅黑" text-anchor="middle" font-size="13" x="0.0" y="13.325">FINISH_APPLICATION</text></g></g><g id="ProcessOnG1064"><path id="ProcessOnPath1065" d="M577.0 242.0L577.0 297.5L576.3571428571429 297.5L576.3571428571429 337.7639320225002" stroke="#323232" stroke-width="2.0" stroke-dasharray="none" fill="none" marker-end="url(#ProcessOnMarker1066)"/><g id="ProcessOnG1068" transform="matrix(1.0,0.0,0.0,1.0,577.0,282.0783945826787)"><path id="ProcessOnPath1069" d="M0 0H136.0V16.25H0Z" fill="#fff" transform="matrix(1.0,0.0,0.0,1.0,-68.0,0.0)"/><text id="ProcessOnText1070" fill="#000000" font-weight="normal" font-style="normal" text-decoration="blink" font-family="微软雅黑" text-anchor="middle" font-size="13" x="0.0" y="13.325">APPLICATION_INITED</text></g></g><g id="ProcessOnG1071"><path id="ProcessOnPath1072" d="M576.3571428571429 411.5L576.3571428571429 441.5L1061.9642857142862 441.5L1061.9642857142862 382.25L770.5932108346427 382.25" stroke="#323232" stroke-width="2.0" stroke-dasharray="none" fill="none" marker-end="url(#ProcessOnMarker1073)"/><g id="ProcessOnG1075" transform="matrix(1.0,0.0,0.0,1.0,979.4712517255364,425.25)"><path id="ProcessOnPath1076" d="M0 0H237.0V32.5H0Z" fill="#fff" transform="matrix(1.0,0.0,0.0,1.0,-118.5,0.0)"/><text id="ProcessOnText1077" fill="#000000" font-weight="normal" font-style="normal" text-decoration="blink" font-family="微软雅黑" text-anchor="middle" font-size="13" x="0.0" y="13.325">INIT_CONTAINER</text><text id="ProcessOnText1078" fill="#000000" font-weight="normal" font-style="normal" text-decoration="blink" font-family="微软雅黑" text-anchor="middle" font-size="13" x="0.0" y="29.575">APPLICATION_CONTAINER_FINISHED</text></g></g><g id="ProcessOnG1079"><path id="ProcessOnPath1080" d="M397.35714285714283 382.25L270.21428571428544 382.25L270.21428571428544 714.2142857142858L383.95716042993456 714.2142857142858" stroke="#323232" stroke-width="2.0" stroke-dasharray="none" fill="none" marker-end="url(#ProcessOnMarker1081)"/></g><g id="ProcessOnG1083"><path id="ProcessOnPath1084" d="M576.3877551020407 570.6428571428573L576.3877551020407 600.6428571428573L1058.0663265306123 600.6428571428573L1058.0663265306123 541.3928571428573L770.6238230795406 541.3928571428573" stroke="#323232" stroke-width="2.0" stroke-dasharray="none" fill="none" marker-end="url(#ProcessOnMarker1085)"/><g id="ProcessOnG1087" transform="matrix(1.0,0.0,0.0,1.0,975.5732925418624,560.0178571428573)"><path id="ProcessOnPath1088" d="M0 0H249.0V81.25H0Z" fill="#fff" transform="matrix(1.0,0.0,0.0,1.0,-124.5,0.0)"/><text id="ProcessOnText1089" fill="#000000" font-weight="normal" font-style="normal" text-decoration="blink" font-family="微软雅黑" text-anchor="middle" font-size="13" x="0.0" y="13.325">APPLICATION_CONTAINER_FINISHED</text><text id="ProcessOnText1090" fill="#000000" font-weight="normal" font-style="normal" text-decoration="blink" font-family="微软雅黑" text-anchor="middle" font-size="13" x="0.0" y="29.575">APPLICATION_LOG_HANDLING_INITED</text><text id="ProcessOnText1091" fill="#000000" font-weight="normal" font-style="normal" text-decoration="blink" font-family="微软雅黑" text-anchor="middle" font-size="13" x="0.0" y="45.825">APPLICATION_LOG_HANDLING_FAILED</text><text id="ProcessOnText1092" fill="#000000" font-weight="normal" font-style="normal" text-decoration="blink" font-family="微软雅黑" text-anchor="middle" font-size="13" x="0.0" y="62.075">APPLICATION_INITED</text><text id="ProcessOnText1093" fill="#000000" font-weight="normal" font-style="normal" text-decoration="blink" font-family="微软雅黑" text-anchor="middle" font-size="13" x="0.0" y="78.325">FINISH_APPLICATION</text></g></g><g id="ProcessOnG1094"><path id="ProcessOnPath1095" d="M576.3877551020407 570.6428571428573L576.3877551020407 627.8035714285716L578.1932284074343 627.8035714285716L578.1932284074343 669.728217736786" stroke="#323232" stroke-width="2.0" stroke-dasharray="none" fill="none" marker-end="url(#ProcessOnMarker1096)"/><g id="ProcessOnG1098" transform="matrix(1.0,0.0,0.0,1.0,576.3877551020407,612.9632740925184)"><path id="ProcessOnPath1099" d="M0 0H237.0V16.25H0Z" fill="#fff" transform="matrix(1.0,0.0,0.0,1.0,-118.5,0.0)"/><text id="ProcessOnText1100" fill="#000000" font-weight="normal" font-style="normal" text-decoration="blink" font-family="微软雅黑" text-anchor="middle" font-size="13" x="0.0" y="13.325">APPLICATION_CONTAINER_FINISHED</text></g></g><g id="ProcessOnG1101"><path id="ProcessOnPath1102" d="M578.1932284074343 743.4642857142858L578.1932284074343 773.4642857142858L1057.3717998360057 773.4642857142858L1057.3717998360057 714.2142857142858L772.4292963849341 714.2142857142858" stroke="#323232" stroke-width="2.0" stroke-dasharray="none" fill="none" marker-end="url(#ProcessOnMarker1103)"/><g id="ProcessOnG1105" transform="matrix(1.0,0.0,0.0,1.0,974.8787658472559,724.7142857142858)"><path id="ProcessOnPath1106" d="M0 0H266.0V97.5H0Z" fill="#fff" transform="matrix(1.0,0.0,0.0,1.0,-133.0,0.0)"/><text id="ProcessOnText1107" fill="#000000" font-weight="normal" font-style="normal" text-decoration="blink" font-family="微软雅黑" text-anchor="middle" font-size="13" x="0.0" y="13.325">APPLICATION_CONTAINER_FINISHED</text><text id="ProcessOnText1108" fill="#000000" font-weight="normal" font-style="normal" text-decoration="blink" font-family="微软雅黑" text-anchor="middle" font-size="13" x="0.0" y="29.575">APPLICATION_LOG_HANDLING_INITED</text><text id="ProcessOnText1109" fill="#000000" font-weight="normal" font-style="normal" text-decoration="blink" font-family="微软雅黑" text-anchor="middle" font-size="13" x="0.0" y="45.825">APPLICATION_LOG_HANDLING_FAILED</text><text id="ProcessOnText1110" fill="#000000" font-weight="normal" font-style="normal" text-decoration="blink" font-family="微软雅黑" text-anchor="middle" font-size="13" x="0.0" y="62.075">APPLICATION_LOG_HANDLING_FINISHED</text><text id="ProcessOnText1111" fill="#000000" font-weight="normal" font-style="normal" text-decoration="blink" font-family="微软雅黑" text-anchor="middle" font-size="13" x="0.0" y="78.325">APPLICATION_INITED</text><text id="ProcessOnText1112" fill="#000000" font-weight="normal" font-style="normal" text-decoration="blink" font-family="微软雅黑" text-anchor="middle" font-size="13" x="0.0" y="94.575">FINISH_APPLICATION</text></g></g><g id="ProcessOnG1113"><path id="ProcessOnPath1114" d="M578.1932284074343 743.4642857142858L578.1932284074343 798.0892857142857L578.5703212193079 798.0892857142857L578.5703212193079 837.4782177367857" stroke="#323232" stroke-width="2.0" stroke-dasharray="none" fill="none" marker-end="url(#ProcessOnMarker1115)"/><g id="ProcessOnG1117" transform="matrix(1.0,0.0,0.0,1.0,578.1932284074343,782.5347981314726)"><path id="ProcessOnPath1118" d="M0 0H253.0V16.25H0Z" fill="#fff" transform="matrix(1.0,0.0,0.0,1.0,-126.5,0.0)"/><text id="ProcessOnText1119" fill="#000000" font-weight="normal" font-style="normal" text-decoration="blink" font-family="微软雅黑" text-anchor="middle" font-size="13" x="0.0" y="13.325">APPLICATION_RESOURCES_CLEANEDUP</text></g></g><g id="ProcessOnG1120"><path id="ProcessOnPath1121" d="M576.3571428571429 411.5L576.3571428571429 461.82142857142867L576.3877551020407 461.82142857142867L576.3877551020407 496.90678916535757" stroke="#323232" stroke-width="2.0" stroke-dasharray="none" fill="none" marker-end="url(#ProcessOnMarker1122)"/><g id="ProcessOnG1124" transform="matrix(1.0,0.0,0.0,1.0,576.3571428571429,446.09370070512773)"><path id="ProcessOnPath1125" d="M0 0H137.0V16.25H0Z" fill="#fff" transform="matrix(1.0,0.0,0.0,1.0,-68.5,0.0)"/><text id="ProcessOnText1126" fill="#000000" font-weight="normal" font-style="normal" text-decoration="blink" font-family="微软雅黑" text-anchor="middle" font-size="13" x="0.0" y="13.325">FINISH_APPLICATION</text></g></g><g id="ProcessOnG1127"><path id="ProcessOnPath1128" d="M578.570321219308 911.2142857142856L578.570321219308 941.2142857142856L1061.856035505021 941.2142857142856L1061.856035505021 881.9642857142856L772.8063891968078 881.9642857142856" stroke="#323232" stroke-width="2.0" stroke-dasharray="none" fill="none" marker-end="url(#ProcessOnMarker1129)"/><g id="ProcessOnG1131" transform="matrix(1.0,0.0,0.0,1.0,979.3630015162712,908.7142857142856)"><path id="ProcessOnPath1132" d="M0 0H266.0V65.0H0Z" fill="#fff" transform="matrix(1.0,0.0,0.0,1.0,-133.0,0.0)"/><text id="ProcessOnText1133" fill="#000000" font-weight="normal" font-style="normal" text-decoration="blink" font-family="微软雅黑" text-anchor="middle" font-size="13" x="0.0" y="13.325">APPLICATION_LOG_HANDLING_FINISHED</text><text id="ProcessOnText1134" fill="#000000" font-weight="normal" font-style="normal" text-decoration="blink" font-family="微软雅黑" text-anchor="middle" font-size="13" x="0.0" y="29.575">APPLICATION_LOG_HANDLING_INITED</text><text id="ProcessOnText1135" fill="#000000" font-weight="normal" font-style="normal" text-decoration="blink" font-family="微软雅黑" text-anchor="middle" font-size="13" x="0.0" y="45.825">APPLICATION_LOG_HANDLING_FAILED</text><text id="ProcessOnText1136" fill="#000000" font-weight="normal" font-style="normal" text-decoration="blink" font-family="微软雅黑" text-anchor="middle" font-size="13" x="0.0" y="62.075">FINISH_APPLICATION</text></g></g></g></g></svg>